<?xml version="1.0" encoding="UTF-8"?>
<svg version="1.2" baseProfile="tiny-ps" viewBox="0 0 300 300" xmlns="http://www.w3.org/2000/svg" xlink="http://www.w3.org/1999/xlink"><title>Mawhibti Abilities Development Center
</title><g><g fill="#fefdfd" transform="matrix(.1 0 0 -.1 0 300)"><path d="M0 1500V0h3000v3000H0V1500z"/></g><g fill="#f7d2ae" transform="matrix(.1 0 0 -.1 0 300)"><path d="M747 2993c414-2 1092-2 1505 0 414 1 76 2-752 2s-1166-1-753-2zm597-657-50-23-32-39-32-38-16-50-17-49 6-52 5-52 20-40 21-39 42-39 43-39-26-19-27-20 40-78c21-44 43-79 47-79 14 0 67 40 113 85l47 46 57-17 58-16 38 6 39 6 42-21 42-21h64l65 1 56 28 55 28 33 43 32 43 12 42 11 42-5 53-6 53-26 45-26 45-39 28-39 28-47 13-47 13-97-31-96-32-11-106-11-106-11-11-10-10-31 9-31 9 46 93c25 51 45 100 45 108 0 28-39 91-79 127l-40 36-38 10c-21 6-60 11-88 11h-50l-51-24zm149-163c6-12-52-133-63-133-6 0-19 9-30 20l-20 20v47l21 27 20 26h34c19 0 36-3 38-7zm437-123 20-20v-47l-21-27-20-26h-59l6 58 6 57 16 13c21 16 29 15 52-8zM715 2247c-2-7-15-56-29-111l-24-98-83-78-83-77 44-28c25-15 69-43 97-61l53-33 50-102 51-101 17 14c9 8 47 40 85 72l67 58 110 16 110 15v12c0 7-18 55-39 107l-39 93 20 109c10 59 18 110 16 112-3 2-52-1-111-6l-107-9-100 54-101 54-4-12zm1605-242-35-24h-64l-63-1 6-22c3-13 9-41 12-63l5-40-15-44c-9-24-13-47-10-52l5-9h96l47-36 48-36 8 8c4 5 15 29 24 54l17 46 45 28c24 15 44 32 44 36 0 5-18 24-40 41l-41 33-15 53-15 53-12-1c-7 0-28-11-47-24zm-864-284-17-19 3-33 3-32 27-20 26-20 30 11 30 10 21-24 21-24h27c34 0 46 8 62 38l13 24-12 28-12 28-28 12-28 12-21-11-20-11-25 25-25 25h-58l-17-19zm675-65c-6-14-18-51-27-82l-16-56 8-8c5-4 40-18 77-31l69-23 28-33 29-33 6-34c4-19 5-42 3-52l-3-19-15-3-16-3-12 45-12 45-32 37-33 37-40 18-40 19h-50l-50-1-70-44-70-45v-165l-28-3-29-3-18 16-18 17-7 96c-4 53-9 99-10 102-4 7-173-4-180-12-3-3-1-45 5-93s9-90 6-93c-3-2-17 3-31 12l-25 16-6 24-5 23 26 113 27 112-8 8c-11 11-162 55-168 49-4-4-41-183-51-252l-6-38-37 3-37 3-10 101-10 101-13 16c-7 8-36 25-64 37l-52 22-66-4-65-5-40-21c-52-27-99-76-124-132l-21-45v-114l12-26c14-32 12-34-42-37l-44-3-21 107c-11 59-23 110-27 113l-6 7-79-12c-43-7-81-15-84-19l-7-6 38-204c22-112 40-205 42-206 4-4 499 92 504 98 2 2-2 44-9 93l-12 89-28 3-27 3-15 22c-8 12-15 30-15 40v19l29 29c16 16 36 29 44 29h15l11-76 11-75 16-32c33-66 84-100 164-111l45-6 57 13 57 14 43-28 43-29 54-11 53-11 44 7 43 6 23-12c12-7 38-16 58-20l35-8 135 10c74 6 206 20 293 33l157 23 15 19c30 39 56 103 65 159l9 58-9 44c-6 25-21 66-34 92l-24 47-44 40-43 40-75 31c-41 17-87 35-102 38l-28 7-9-26zm-48-393-6-15-8 14c-5 7-9 19-9 27v13l14-12 15-11-6-16zM877 1000l-14-21-31 18-30 17-26-12-26-12-10-25-10-25 10-24c18-47 70-59 106-25l22 21 22-12 21-11 26 3 26 3 20 26 19 27-7 21c-3 11-13 28-21 36l-15 15h-68l-14-20zm755-16-22-15v-77l13-10c6-6 24-13 37-17l26-6 27 21 27 21v59l-20 20-20 20h-23c-12 0-33-7-45-16zm-238-205c-3-5-3-13 0-18l6-9-15-12c-8-7-15-20-15-29l-1-16-11 20c-14 27-38 45-60 45h-18v-49l23-4 22-4-27-2-28-1v-49l120 1 120 1v127h-40l-1-42-1-43-5 15c-2 8-7 22-10 30s-7 22-7 30l-1 15-23 1c-12 1-25-3-28-7zm217-30c-26-49-26-54-1-79l20-20 26 6 25 6 6-21 5-21h47l3 18 3 17h240l3 64 3 64-32-7c-17-3-40-6-50-6h-18l4-37 5-38-11 38-11 37h-28l-1-37v-38l-9 22c-5 12-18 27-29 33l-21 11-22-13c-13-7-36-13-53-13h-30l-10 10c-5 5-10 16-10 24v14l-17 3-17 2-20-39zm336-41-5-13v50l5-12c2-7 2-19 0-25zm-787 14c0-63 4-74 26-65l14 5v118h-40v-58zm360 0c0-63 4-74 26-65l14 5v118h-40v-58zm-467 36 4-13h26l27 1v-46h-60v38l-14 5c-19 8-26-1-26-34v-28l22-15 22-16h29c16 0 37 5 48 10l19 11v79h-19c-11 0-23 5-26 10-3 6-18 10-31 10h-26l5-12zm164-70-7-52 11-11 10-10 15 19 14 20v86h-37l-6-52zm-717-8v-20h481l-3 18-3 17-238 3-237 2v-20zm1520 0v-20h481l-3 18-3 17-238 3-237 2v-20z"/></g><g fill="#fdbb1b" transform="matrix(.1 0 0 -.1 0 300)"><path d="M747 2993c414-2 1092-2 1505 0 414 1 76 2-752 2s-1166-1-753-2zm617-649-42-15-37-36-38-37-20-45-21-46v-60l1-60 23-48 22-47 30-25c16-13 37-29 46-34l17-10-30-25-30-25 39-75 40-74 27 13c15 8 52 38 83 66l57 52 42-13 41-12 57 1 56 1 41-20 41-20h116l45 21c56 25 105 71 133 124l21 40v130l-21 41-22 40-40 37-40 36-53 16-52 15-93-31-92-30-5-17c-2-9-8-55-11-102l-7-85-10-12c-12-15-47-17-67-4l-14 9 47 100 48 99-26 51-26 51-33 25c-18 14-53 32-76 41l-44 15-41-1c-22 0-60-7-82-15zm120-167 17-12-28-62-28-62-14-1c-8 0-23 7-33 17l-18 16v29c0 38 16 67 43 78 31 12 41 12 61-3zm448-124 18-16v-65l-17-21-18-22-30-2-30-2 3 64 2 65 13 8c19 12 39 9 59-9zM717 2233c-3-5-14-51-26-103l-22-95-81-75-81-76 79-48c109-67 109-67 159-174l45-95 18 15c86 74 154 128 160 128 25 1 195 30 200 34 3 4-12 50-33 103l-38 97 17 100c9 56 16 104 16 109v7l-109-6-109-7-87 47c-90 47-101 51-108 39zm1598-238-40-25h-107l6-26c4-15 10-39 13-55l5-28-16-41c-9-22-16-44-16-49v-8l52-6 53-7 44-30c24-17 45-30 46-28 2 2 13 24 23 49l20 46 41 29c22 16 41 32 41 36 0 3-18 22-39 40l-40 34-12 47-11 47h-12c-6 0-29-12-51-25zm-855-275-20-20v-50l20-20 20-20h59l6 10 6 11 29-31 28-30h19c10 0 29 7 41 16l22 15v66l-18 16-19 17h-22c-12 0-31-5-42-10l-19-11v10c0 6-10 19-22 31l-22 20h-46l-20-20zm656-120c-14-45-26-83-26-85s24-11 53-21c28-9 69-25 90-36l38-19 19-32 20-32v-93l-16-6c-9-3-17-6-19-6-1 0-5 14-9 32-3 17-18 51-31 75l-26 42-44 26-44 26-53 6-53 5-78-51-77-51 4-22c3-13 7-49 10-80l6-58h-88l-12 15-12 14-5 101-6 100h-36c-20 0-60-3-90-7l-54-6 7-94 7-93h-14c-7 0-23 10-35 23l-22 23v31c0 17 11 75 25 129s25 100 25 101-37 14-82 27l-82 26-7-12c-11-18-49-206-49-243v-35l-24-6c-14-3-33-4-43-2l-18 3-8 80c-5 44-10 94-13 111l-4 31-53 29-52 29H995l-54-30-53-29-29-36-30-35-14-49c-18-60-18-109-1-157l13-37-49-10-50-9-4 11c-2 6-13 58-24 115-10 57-21 105-23 107-5 5-157-22-164-29l-6-7 37-197c20-109 39-200 42-202 3-3 116 17 251 43l245 49-6 71c-4 39-9 79-12 89l-5 17h-13c-7 0-25 9-40 21l-26 20v60l25 24 24 25h39l6-16c3-9 6-26 6-39s5-47 11-76l11-51 37-41 36-40 32-14 32-13h58c32 0 75 5 95 10l37 11 41-27 42-28 59-12 59-12 40 5 41 6 39-18 40-18 133 6c72 4 210 18 304 31l173 23 15 13c8 7 26 36 41 65l26 54 5 60 6 60-12 48-12 48-34 52-34 51-43 30c-38 26-133 68-195 86l-22 7-25-81zm-31-325v-18l-12-4-13-5v54l13-4 12-5v-18zM882 1000l-19-20-28 14-27 14-17-5c-9-3-24-13-33-21l-18-15v-56l16-15c26-27 71-24 96 5l17 21 23-16c30-21 54-20 78 4l20 20v57l-18 16-19 17h-52l-19-20zm763-12c-27-15-35-28-35-59v-26l18-16 19-17h62l15 22c9 12 16 31 16 41v18l-25 24c-27 28-40 30-70 13zm-478-215c-9-8-9-76-1-97l6-16 9 6 9 5v109h-8c-5 0-12-3-15-7zm233-3v-10h40v20h-40v-10zm78-32-3-43-7 3c-5 1-7 3-6 5 1 1-4 12-11 25l-12 22h-39l-19-31-19-31-14 29-13 28h-48l-4-12-5-13h42v-30h-52l5-12 4-13h228v108l-12 4-12 4-3-43zm-58-34v-15l-10 6-10 6 5 10c9 14 15 11 15-7zm107 69c-2-5-2-32 1-61l4-53 10 3c5 2 9 7 9 11-1 4-1 30-1 57v50h-9c-6 0-12-3-14-7zm98-3-6-10h41v10c0 6-6 10-14 10s-18-4-21-10zm330-2c-2-7-6-29-8-48l-4-35-8 23c-4 12-11 22-16 22-6 0-14-10-19-22l-9-23-7 23-6 22h-27l-4-22-3-23-12 27c-6 14-16 29-22 33l-11 7-25-6-24-6v-50h-20v40h-30v-40h-20v50l-25 6-25 6-15-12-15-12v-47l18-9 17-10 173-1 172-1v50c0 28 0 53 1 57 0 4-4 9-10 11l-11 4-5-14zm-305-63c0-8-4-15-10-15-5 0-10 7-10 15s5 15 10 15c6 0 10-7 10-15zm150 0c0-8-4-15-10-15-5 0-10 7-10 15s5 15 10 15c6 0 10-7 10-15zm100 54c0-5 9-9 20-9s20 2 20 4-9 6-20 9l-20 5v-9zm-832-6c6-2 18-2 25 0l12 5h-50l13-5zm50-30-3-28h-70l-3 23c-4 25-17 29-26 7-13-35 20-65 73-65h30l16 16 16 17-3 25-3 25-12 4-12 4-3-28zm109 0c-3-5-6-25-8-45l-3-37 7-8 8-7 9 14c6 8 10 32 10 53v37h-9c-6 0-12-3-14-7zm-717-42v-8l220-8 219-7 11 7c5 3 10 10 10 16v9H510v-9zm1520 1v-9l221-6c121-4 225-5 230-1 5 3 9 9 9 15v9h-460v-8zm-325-42-20-9h23l22-1v10c0 6-1 10-2 9-2 0-12-4-23-9z"/></g><g fill="#e47c95" transform="matrix(.1 0 0 -.1 0 300)"><path d="M747 2993c414-2 1092-2 1505 0 414 1 76 2-752 2s-1166-1-753-2zm617-649-42-15-37-36-38-37-20-45-21-46v-60l1-60 23-48 22-47 30-25c16-13 37-29 46-34l17-10-30-25-30-25 39-75 40-74 27 13c15 8 52 38 83 66l57 52 42-13 41-12 57 1 56 1 41-20 41-20h116l45 21c56 25 105 71 133 124l21 40v130l-21 41-22 40-40 37-40 36-53 16-52 15-93-31-92-30-5-17c-2-9-8-55-11-102l-7-85-10-12c-12-15-47-17-67-4l-14 9 47 100 48 99-26 51-26 51-33 25c-18 14-53 32-76 41l-44 15-41-1c-22 0-60-7-82-15zm120-167 17-12-28-62-28-62-14-1c-8 0-23 7-33 17l-18 16v29c0 38 16 67 43 78 31 12 41 12 61-3zm448-124 18-16v-65l-17-21-18-22-30-2-30-2 3 64 2 65 13 8c19 12 39 9 59-9zm-472-333-20-20v-50l20-20 20-20h59l6 10 6 11 29-31 28-30h19c10 0 29 7 41 16l22 15v66l-18 16-19 17h-22c-12 0-31-5-42-10l-19-11v10c0 6-10 19-22 31l-22 20h-46l-20-20zm656-120c-14-45-26-83-26-85s24-11 53-21c28-9 69-25 90-36l38-19 19-32 20-32v-93l-16-6c-9-3-17-6-19-6-1 0-5 14-9 32-3 17-18 51-31 75l-26 42-44 26-44 26-53 6-53 5-78-51-77-51 4-22c3-13 7-49 10-80l6-58h-88l-12 15-12 14-5 101-6 100h-36c-20 0-60-3-90-7l-54-6 7-94 7-93h-14c-7 0-23 10-35 23l-22 23v31c0 17 11 75 25 129s25 100 25 101-37 14-82 27l-82 26-7-12c-11-18-49-206-49-243v-35l-24-6c-14-3-33-4-43-2l-18 3-8 80c-5 44-10 94-13 111l-4 31-53 29-52 29H995l-54-30-53-29-29-36-30-35-14-49c-18-60-18-109-1-157l13-37-49-10-50-9-4 11c-2 6-13 58-24 115-10 57-21 105-23 107-5 5-157-22-164-29l-6-7 37-197c20-109 39-200 42-202 3-3 116 17 251 43l245 49-6 71c-4 39-9 79-12 89l-5 17h-13c-7 0-25 9-40 21l-26 20v60l25 24 24 25h39l6-16c3-9 6-26 6-39s5-47 11-76l11-51 37-41 36-40 32-14 32-13h58c32 0 75 5 95 10l37 11 41-27 42-28 59-12 59-12 40 5 41 6 39-18 40-18 133 6c72 4 210 18 304 31l173 23 15 13c8 7 26 36 41 65l26 54 5 60 6 60-12 48-12 48-34 52-34 51-43 30c-38 26-133 68-195 86l-22 7-25-81zm-31-325v-18l-12-4-13-5v54l13-4 12-5v-18zM882 1000l-19-20-28 14-27 14-17-5c-9-3-24-13-33-21l-18-15v-56l16-15c26-27 71-24 96 5l17 21 23-16c30-21 54-20 78 4l20 20v57l-18 16-19 17h-52l-19-20zm763-12c-27-15-35-28-35-59v-26l18-16 19-17h62l15 22c9 12 16 31 16 41v18l-25 24c-27 28-40 30-70 13z"/></g><g fill="#ec3b61" transform="matrix(.1 0 0 -.1 0 300)"><path d="M747 2993c414-2 1092-2 1505 0 414 1 76 2-752 2s-1166-1-753-2zm653-645-45-8-40-28-40-28-29-47-29-48-5-55-5-54 14-48 13-47 58-57c32-32 55-58 51-58-5-1-19-9-31-20l-24-20 38-67c20-38 38-69 40-71 6-8 53 25 105 75l56 53 47-16 48-16 49 4 50 5 42-21 42-21 65 1h66l54 30 53 29 28 38c15 21 33 54 40 74l11 35-4 58-4 58-30 48-30 48-46 29-46 29-41 5-41 6-78-28c-42-15-80-31-84-34s-12-51-18-106l-11-100-13-13-14-14-31 7c-17 3-33 10-36 14-2 5 16 50 40 100 50 103 51 109 29 154-36 72-93 113-172 126l-47 7-45-8zm84-164c22-8 20-19-11-91l-27-63h-11c-6 0-20 7-32 15l-21 15-7 29-6 30 12 23c23 43 61 58 103 42zm447-123 23-18v-72l-24-26-23-25h-28c-15 0-30 3-32 8-2 4-1 33 3 66l6 59 19 13c24 18 28 18 56-5zm-469-343-12-12v-66l26-17 26-17 30 12 31 11 19-24 19-25h56l18 20 17 19-6 25-6 26-26 17-26 17-29-16-28-17-13 27-13 27-35 3-35 3-13-13zm659-113c-11-36-21-71-21-78v-13l67-24 66-23 33-29 33-29 11-35 12-35-6-35-7-34h-39l-6 28c-18 74-63 130-126 157l-37 15h-94l-69-42-69-43 7-82 6-83h-43c-24 0-50 4-57 9l-13 8-10 104c-6 57-12 104-12 105-1 0-40-2-86-4l-83-4 6-62c4-33 10-78 13-98l6-38h-35l-30 30-30 30 7 43c3 23 15 75 26 115 10 40 19 78 19 86v14l-69 21c-38 12-74 21-79 21h-10l-21-87c-11-49-23-114-27-145l-7-58h-73l-12 12-12 12-1 60c0 34-3 79-7 101l-7 40-50 27-50 28h-130l-51-24-50-23-37-43c-20-24-42-58-48-77l-11-35 5-66c3-37 7-76 9-87l3-19-49-8c-27-5-51-7-54-4-2 3-13 54-24 113s-21 110-23 112c-3 2-41-2-85-9l-81-13 5-21c2-11 19-100 36-196 18-96 35-178 39-182l6-7 235 46c129 25 238 49 243 52l7 7-12 82-11 82h-44l-15 18c-8 9-18 25-21 34l-6 17 10 30 10 29 35 17c19 9 38 14 43 11 4-3 11-31 15-63s11-75 17-95l10-38 37-39 37-39 58-12 57-13 69 13 69 13 27-21c14-11 49-28 77-38l50-16 57 5 56 5 53-21 53-21 144 12c80 7 211 21 292 33l148 20 18 16c9 9 29 41 44 71l27 54v153l-28 57-27 57-50 45-49 44-86 31c-47 17-89 31-93 31-5 0-18-29-30-65zm-33-333-3-25-11-4-12-4-4 31c-5 35-2 41 19 33l14-6-3-25zM883 994l-25-25-17 15c-10 9-27 16-39 16h-22l-20-20-20-20v-40l20-20 20-20h49l20 26 20 26 16-16 16-16h58l15 22c22 31 20 45-9 73-31 32-50 31-82-1zm746-25-21-21 7-26c7-32 31-52 60-52h22l16 18 17 19v52l-16 15-15 16h-49l-21-21z"/></g><g fill="#101010" transform="matrix(.1 0 0 -.1 0 300)"><path d="M747 2993c414-2 1092-2 1505 0 414 1 76 2-752 2s-1166-1-753-2z"/></g></g></svg>